#!OML:ASF F:\VICON\USERDATA\INSTALL\rory3\rory3.ASF
:FULLY-SPECIFIED
:DEGREES
47
root -0.5351661607673346 18.35285747564121 12.893130127633095 5.920143003712349 -2.782591770450974 1.853047330937213
lfemur 4.67145454322857 -5.365757360335932 -29.061284671731634
ltibia 45.132559900081475
lfoot 29.573587881416113 -20.111855843666902
ltoes -5.978509141716705
rfemur -39.23738161785079 0.6231257687619545 25.678604957491668
rtibia 32.33410708879123
rfoot -3.5139105893435993 -3.7657632416694655
rtoes -18.511322055801433
lowerback 13.707050220292714 -1.515464453324035 -1.6683087351883898
upperback -0.9329467649088501 -2.213086407761311 1.501596106169977
thorax -7.594807029347276 -0.8309825466603822 3.1850765850838707
lowerneck -18.22424616060398 -2.514988761876701 -3.4260933062772008
upperneck 15.301834068508267 -2.7660485055878445 1.7604577133355157
head 8.030785587666347 -1.2827065953017154 0.9700392252159967
lclavicle -6.483504770879619e-16 -4.8611004845007315e-15
lhumerus -40.37231395198421 -16.84761549324051 96.07568634845524
lradius 115.75732481242139
lwrist 30.83097063375662
lhand -31.908191670702866 -2.5064817070653085
lfingers 7.125019999999998
lthumb -5.103999980629168 27.63687263856742
rclavicle -6.542940062945872e-16 -4.864654482585626e-15
rhumerus -50.4319646816846 14.058717440538562 -99.5376826291805
rradius 111.6858731661112
rwrist -13.767083732759387
rhand -16.671544572307372 35.16205983357184
rfingers 7.125019999999998
rthumb 9.312523865119253 5.291787949030586
48
root -0.5279791527184223 18.216370279560408 14.101977688525736 5.240588586449263 -4.26544083350323 1.1153256614175866
lfemur 3.696139501421257 -4.104554736686803 -27.69437859245872
ltibia 50.84042647770291
lfoot 28.858991386866506 -19.777740014731503
ltoes -1.8271064854139354
rfemur -38.127198958895775 1.484576903007326 27.155562333718812
rtibia 35.73954052696606
rfoot -4.737484627121212 -2.0138184006174207
rtoes -16.21112241990424
lowerback 13.787833917089278 -1.348164034081007 -1.3296642947096733
upperback -0.7713644928952985 -2.0120258064058807 1.6171682173241495
thorax -7.869263737320913 -0.7534179486519534 3.117125711797709
lowerneck -18.041538859183326 -2.570964258823505 -3.448670246285866
upperneck 14.903050346632547 -2.862097646177826 1.7213221179113416
head 7.843680288255314 -1.3467633468508218 0.9418911845638718
lclavicle -6.478512801169727e-16 -4.860747427356497e-15
lhumerus -41.503693719987645 -16.088741688947845 96.45441253514883
lradius 112.41186534459713
lwrist 28.452628547714138
lhand -32.27808952079718 -2.4935401342648005
lfingers 7.125019999999998
lthumb -5.285852541612728 27.769697358313348
rclavicle -6.526653702873479e-16 -4.8635660164554975e-15
rhumerus -51.135819490818704 13.724643864859862 -100.12603702156694
rradius 113.20936865540163
rwrist -13.507548464338685
rhand -16.843656520957396 35.16008224182235
rfingers 7.125019999999998
rthumb 9.234594193510748 5.197083031661791
49
root -0.5380642258909346 18.06095377427261 15.141277998509665 4.776564005907756 -5.419917462560235 -0.021049293406161018
lfemur 2.1053200753760635 -2.304945946955015 -25.417538571866544
ltibia 56.97135219374496
lfoot 28.098350544611453 -18.97923997220547
ltoes 0.0422847122696286
rfemur -36.90612530632275 2.265650764932832 28.976619308430656
rtibia 39.8080768601514
rfoot -7.2859316001274514 -0.24420134781349123
rtoes -9.489736118365949
lowerback 14.03349473720116 -1.2459411312176227 -0.572331957389411
upperback -0.7002354925808404 -1.7680279621210993 1.8356085223487324
thorax -8.494478094871356 -0.6794135690530976 2.9545556163822466
lowerneck -17.520018723174495 -2.6475314583751945 -3.4930248315503944
upperneck 14.608068566873207 -2.983040441046666 1.6552633278457018
head 7.751671936020216 -1.4102153376705846 0.8818838467727679
lclavicle -6.472377253432498e-16 -4.8603134060962055e-15
lhumerus -43.010866989770285 -15.311152496889994 96.77056260693567
lradius 109.38776540908842
lwrist 26.58747918044605
lhand -32.52567652865498 -2.180201219126587
lfingers 7.125019999999998
lthumb -5.475016968697325 28.011613088705047
rclavicle -6.514653741142202e-16 -4.862748096997606e-15
rhumerus -51.75514619468892 13.368216324065086 -100.60815919559171
rradius 114.78434447792806
rwrist -13.40067993608516
rhand -17.044557199130956 35.12513369128415
rfingers 7.125019999999998
rthumb 9.116266431285396 5.234316722912009
50
root -0.5150349831673952 17.86630958311234 15.969289134033053 4.301613379466945 -6.217417965193317 0.4777605711573061
lfemur 0.5546796258040487 -0.6166951852504553 -24.870129894910345
ltibia 63.52298223859215
lfoot 27.031893988602455 -17.796357792621386
ltoes 0.44628809068358954
rfemur -36.05462404755693 2.323268005759846 28.72808757410506
rtibia 44.560412680162074
rfoot -11.056997349080394 -0.1355923514468147
rtoes -4.382130632722166
lowerback 14.185857741798143 -1.053917558107428 -1.0060417835060909
upperback -0.6538046454035635 -1.5228892313795512 1.9024562702578178
thorax -9.137848293139875 -0.5812244105014523 2.7530213807093737
lowerneck -17.071648037064456 -2.752359382542486 -3.4895746134317314
upperneck 14.53082236338555 -3.1375419475913287 1.5444849212930294
head 7.809488083072216 -1.4815639951045547 0.7803923722200055
lclavicle -6.469490651365684e-16 -4.860109221924759e-15
lhumerus -45.04875594112812 -14.717713686634227 97.03496636871141
lradius 107.17082001325167
lwrist 25.683914728197802
lhand -32.622969195544364 -1.6878014234697187
lfingers 7.125019999999998
lthumb -5.668982444861459 28.37966706751575
rclavicle -6.5180137940528645e-16 -4.862953594538376e-15
rhumerus -52.245345878683345 12.935307823739326 -100.93714757682122
rradius 116.28532048864076
rwrist -13.31734895500355
rhand -17.159302057621716 35.01437324871304
rfingers 7.125019999999998
rthumb 9.001975913789632 5.2053277553258415
51
root -0.5568902334960236 17.668728275420357 17.131523880684675 4.374396095405974 -6.8881563163497495 -0.17746557491501314
lfemur -2.1480031158956656 1.1717539995617536 -22.615089413493116
ltibia 70.8000595505767
lfoot 25.51823277339715 -16.403654681736814
ltoes 0.5379604254215238
rfemur -34.996136358670874 3.560437197846908 29.684774585149157
rtibia 49.75551809181782
rfoot -15.044246456799865 -2.1260804075990913
rtoes -3.9768334294755525
lowerback 14.30839568079024 -0.8225274760099782 -0.5667480678649801
upperback -0.6389399575577215 -1.1755069206265638 2.1161451942898952
thorax -9.422720976863673 -0.4319864591795361 2.5489628739393706
lowerneck -17.15156639494453 -2.8997641481741434 -3.370910719978138
upperneck 14.727606848063534 -3.3543640231691763 1.357067990569461
head 7.992003175748093 -1.5752400642739794 0.617414760897502
lclavicle -6.472343581353437e-16 -4.860311087984853e-15
lhumerus -47.28654998117324 -14.305277970339747 97.29409686404999
lradius 105.79087314282864
lwrist 26.481101543865883
lhand -32.567698595346734 -1.1748725342788615
lfingers 7.125019999999998
lthumb -5.787956954513407 28.777742442222063
rclavicle -6.528070059481619e-16 -4.863623282438241e-15
rhumerus -52.659818202480984 12.361466371755373 -101.13462601279333
rradius 117.57061579841783
rwrist -13.177739216757578
rhand -17.28081719213782 34.95926487870848
rfingers 7.125019999999998
rthumb 8.862234616302805 5.303126053754453
